<?xml version="1.0" encoding="utf-8"?>
<!-- Generator: Adobe Illustrator 21.1.0, SVG Export Plug-In . SVG Version: 6.00 Build 0)  -->
<svg version="1.1" id="Layer_1" xmlns="http://www.w3.org/2000/svg" xmlns:xlink="http://www.w3.org/1999/xlink" x="0px" y="0px"
	 viewBox="0 0 200 38.8" style="enable-background:new 0 0 200 38.8;" xml:space="preserve">
<style type="text/css">
	.st0{fill:#FFFFFF;}
</style>
<title>lyvebyte</title>
<path class="st0" d="M13.6,20.8l-0.2,0.4L3.5,38.8l31-25h-16L31.4,0H14.3L0,20h14.1L14,20.2L13.6,20.8L13.6,20.8z"/>
<path class="st0" d="M39.1,0h7.1v30.5h-7.1V0z"/>
<path class="st0" d="M49.7,38.7v-5.4c0.1,0,1.2,0,1.2,0c2.3,0,3.7-0.7,3.9-2l0.1-0.6L47.3,8.1h7.9l4.1,17h0.1l4.1-17h7.5l-7.2,22.4
	c-1.9,6-5.2,8.3-11.6,8.3C52.2,38.8,49.8,38.7,49.7,38.7z"/>
<path class="st0" d="M141.5,38.7v-5.4c0.1,0,1.1,0,1.2,0c2.3,0,3.7-0.7,3.9-2l0.1-0.6l-7.7-22.6h7.9l4.1,17h0.1l4.1-17h7.6
	l-7.2,22.4c-1.9,6-5.2,8.2-11.6,8.2C144,38.8,141.6,38.7,141.5,38.7z"/>
<path class="st0" d="M87.5,30.5h-8.2L71.7,8.1h7.7l4,16.4h0.1l4-16.4H95L87.5,30.5z"/>
<path class="st0" d="M115.5,23.5c-0.7,4.6-4.8,7.5-10.6,7.5c-7.1,0-11.4-4.4-11.4-11.6s4.3-11.8,11.1-11.8s11,4.4,11,11.2v2h-15.2
	v0.4c-0.2,2.4,1.6,4.5,4,4.7c0.2,0,0.4,0,0.6,0c1.7,0.1,3.4-0.9,4-2.5H115.5z M100.5,16.8h8.3c0.1-2.2-1.7-4-3.9-4.1
	c-0.1,0-0.2,0-0.2,0C102.4,12.7,100.6,14.5,100.5,16.8L100.5,16.8z"/>
<path class="st0" d="M124.6,26.7h-0.1v3.9h-7.1V0h7.1v12h0.2c1.2-2.7,3.9-4.4,6.8-4.2c5.7,0,9,4.2,9,11.5s-3.3,11.5-8.9,11.5
	C128.6,31,125.8,29.4,124.6,26.7z M124.5,19.3c0,3.6,1.7,5.9,4.3,5.9c2.6,0,4.3-2.3,4.3-5.9s-1.7-5.9-4.3-5.9S124.5,15.8,124.5,19.3
	z"/>
<path class="st0" d="M173.5,3.2v5h4.1v5.3h-4.1V23c0,1.6,0.9,2.4,2.6,2.4c0.5,0,1,0,1.4-0.1v5.1c-1,0.2-2.1,0.3-3.1,0.3
	c-5.8,0-8-1.8-8-6.2v-11h-3V8.1h3v-5L173.5,3.2z"/>
<path class="st0" d="M199.9,23.5c-0.7,4.6-4.9,7.5-10.6,7.5c-7.1,0-11.4-4.4-11.4-11.6S182.2,7.6,189,7.6s11,4.4,11,11.2v2h-15.2
	v0.4c-0.2,2.4,1.6,4.5,4,4.7c0.2,0,0.4,0,0.5,0c1.7,0.1,3.4-0.8,4.1-2.5L199.9,23.5z M184.9,16.8h8.4c0.1-2.2-1.7-4-3.9-4.1
	c-0.1,0-0.2,0-0.2,0C186.8,12.7,184.9,14.5,184.9,16.8L184.9,16.8z"/>
</svg>
